<?xml version="1.0" encoding="UTF-8"?>
<!DOCTYPE svg PUBLIC "-//W3C//DTD SVG 1.1//EN" "http://www.w3.org/Graphics/SVG/1.1/DTD/svg11.dtd">
<svg xmlns="http://www.w3.org/2000/svg" version="1.1" width="1532px" height="392px" style="shape-rendering:geometricPrecision; text-rendering:geometricPrecision; image-rendering:optimizeQuality; fill-rule:evenodd; clip-rule:evenodd" xmlns:xlink="http://www.w3.org/1999/xlink">
<g><path style="opacity:1" fill="#fefefe" d="M -0.5,-0.5 C 510.167,-0.5 1020.83,-0.5 1531.5,-0.5C 1531.5,130.167 1531.5,260.833 1531.5,391.5C 1020.83,391.5 510.167,391.5 -0.5,391.5C -0.5,260.833 -0.5,130.167 -0.5,-0.5 Z"/></g>
<g><path style="opacity:1" fill="#040404" d="M 611.5,134.5 C 611.333,156.503 611.5,178.503 612,200.5C 612.717,199.956 613.217,199.289 613.5,198.5C 624.032,180.711 639.032,175.544 658.5,183C 666.176,188.506 670.676,196.006 672,205.5C 672.5,225.497 672.667,245.497 672.5,265.5C 676.846,265.334 681.179,265.501 685.5,266C 687.037,267.11 687.703,268.61 687.5,270.5C 672.167,270.5 656.833,270.5 641.5,270.5C 641.5,268.833 641.5,267.167 641.5,265.5C 648.489,267.23 653.323,264.897 656,258.5C 656.667,241.167 656.667,223.833 656,206.5C 652.71,192.265 643.876,186.765 629.5,190C 621.178,193.655 615.678,199.822 613,208.5C 611.551,227.445 611.051,246.445 611.5,265.5C 615.846,265.334 620.179,265.501 624.5,266C 626.863,266.589 627.863,268.089 627.5,270.5C 611.833,270.5 596.167,270.5 580.5,270.5C 580.5,268.833 580.5,267.167 580.5,265.5C 589.115,267.286 594.282,263.953 596,255.5C 596.5,216.835 596.667,178.168 596.5,139.5C 591.167,139.5 585.833,139.5 580.5,139.5C 580.5,137.833 580.5,136.167 580.5,134.5C 590.833,134.5 601.167,134.5 611.5,134.5 Z"/></g>
<g><path style="opacity:1" fill="#c1c1c1" d="M 611.5,134.5 C 612.167,155.833 612.833,177.167 613.5,198.5C 613.217,199.289 612.717,199.956 612,200.5C 611.5,178.503 611.333,156.503 611.5,134.5 Z"/></g>
<g><path style="opacity:1" fill="#050505" d="M 942.5,268.5 C 927.202,270.484 911.536,271.151 895.5,270.5C 895.5,268.833 895.5,267.167 895.5,265.5C 899.247,265.608 902.914,265.108 906.5,264C 908.487,262.681 909.654,260.848 910,258.5C 910.5,218.835 910.667,179.168 910.5,139.5C 905.5,139.5 900.5,139.5 895.5,139.5C 895.5,137.833 895.5,136.167 895.5,134.5C 905.833,134.5 916.167,134.5 926.5,134.5C 926.5,178.167 926.5,221.833 926.5,265.5C 931.511,265.334 936.511,265.501 941.5,266C 942.252,266.671 942.586,267.504 942.5,268.5 Z"/></g>
<g><path style="opacity:1" fill="#060606" d="M 1042.5,144.5 C 1043.5,144.5 1044.5,144.5 1045.5,144.5C 1045.5,156.5 1045.5,168.5 1045.5,180.5C 1043.5,180.5 1041.5,180.5 1039.5,180.5C 1039.14,161.978 1029.81,151.478 1011.5,149C 1000.84,147.122 991.669,149.956 984,157.5C 977.08,170.912 979.913,181.745 992.5,190C 1008.14,197.155 1023.48,204.822 1038.5,213C 1051.6,224.794 1054.1,238.627 1046,254.5C 1039.99,263.097 1031.82,268.597 1021.5,271C 1002.59,275.314 984.92,272.481 968.5,262.5C 968.898,267.75 966.564,270.417 961.5,270.5C 961.5,256.167 961.5,241.833 961.5,227.5C 963.792,227.244 965.959,227.577 968,228.5C 972.222,262.392 990.389,273.559 1022.5,262C 1033.42,252.661 1035.25,241.828 1028,229.5C 1024.12,225.95 1019.95,222.783 1015.5,220C 1005.95,215.392 996.285,211.059 986.5,207C 974.444,202.281 966.61,193.781 963,181.5C 960.929,168.805 965.096,158.639 975.5,151C 996.308,139.888 1017.31,139.721 1038.5,150.5C 1038.98,147.845 1040.31,145.845 1042.5,144.5 Z"/></g>
<g><path style="opacity:1" fill="#4f4f4f" d="M 427.5,150.5 C 432.64,149.512 437.974,149.179 443.5,149.5C 443.5,148.167 443.5,146.833 443.5,145.5C 428.5,145.5 413.5,145.5 398.5,145.5C 398.5,146.833 398.5,148.167 398.5,149.5C 402.702,149.183 406.702,149.517 410.5,150.5C 406.167,150.5 401.833,150.5 397.5,150.5C 397.5,148.5 397.5,146.5 397.5,144.5C 413.167,144.5 428.833,144.5 444.5,144.5C 444.5,146.5 444.5,148.5 444.5,150.5C 438.833,150.5 433.167,150.5 427.5,150.5 Z"/></g>
<g><path style="opacity:1" fill="#555555" d="M 506.5,145.5 C 494.655,145.172 482.988,145.505 471.5,146.5C 470.957,146.44 470.624,146.107 470.5,145.5C 482.66,144.175 494.66,144.175 506.5,145.5 Z"/></g>
<g><path style="opacity:1" fill="#b7b7b7" d="M 1042.5,144.5 C 1043.57,143.566 1044.9,143.232 1046.5,143.5C 1046.83,156.011 1046.5,168.345 1045.5,180.5C 1045.5,168.5 1045.5,156.5 1045.5,144.5C 1044.5,144.5 1043.5,144.5 1042.5,144.5 Z"/></g>
<g><path style="opacity:1" fill="#070707" d="M 410.5,150.5 C 406.702,149.517 402.702,149.183 398.5,149.5C 398.5,148.167 398.5,146.833 398.5,145.5C 413.5,145.5 428.5,145.5 443.5,145.5C 443.5,146.833 443.5,148.167 443.5,149.5C 437.974,149.179 432.64,149.512 427.5,150.5C 439.044,183.302 450.878,215.969 463,248.5C 470.066,227.135 477.233,205.802 484.5,184.5C 480.161,171.815 475.828,159.149 471.5,146.5C 482.988,145.505 494.655,145.172 506.5,145.5C 506.5,147.167 506.5,148.833 506.5,150.5C 500.824,150.334 495.157,150.501 489.5,151C 500.69,183.214 512.023,215.38 523.5,247.5C 534.97,215.424 545.636,183.091 555.5,150.5C 550.167,150.5 544.833,150.5 539.5,150.5C 539.5,148.5 539.5,146.5 539.5,144.5C 550.833,144.5 562.167,144.5 573.5,144.5C 573.5,146.5 573.5,148.5 573.5,150.5C 569.327,149.956 565.494,150.623 562,152.5C 548.599,191.537 535.099,230.537 521.5,269.5C 516.933,271.141 514.1,269.474 513,264.5C 505.05,241.314 496.717,218.314 488,195.5C 478.662,220.681 469.829,246.014 461.5,271.5C 459.473,271.662 457.473,271.495 455.5,271C 454.333,269.167 453.167,267.333 452,265.5C 438.15,227.141 424.317,188.808 410.5,150.5 Z"/></g>
<g><path style="opacity:1" fill="#030303" d="M 56.5,202.5 C 58.7354,202.205 60.7354,202.539 62.5,203.5C 56.6276,203.164 51.6276,204.997 47.5,209C 54.3964,207.096 61.3964,205.262 68.5,203.5C 69.9952,203.011 71.3285,202.345 72.5,201.5C 89.4175,200.492 106.084,197.992 122.5,194C 130.5,187.333 138.5,180.667 146.5,174C 149.789,171.522 153.456,169.856 157.5,169C 196.444,165.598 235.111,167.598 273.5,175C 282.389,181.286 290.722,188.286 298.5,196C 314.807,196.59 330.974,198.423 347,201.5C 348.326,201.755 349.326,202.422 350,203.5C 351.871,209.614 354.038,215.614 356.5,221.5C 354.377,226.921 351.377,231.754 347.5,236C 337.767,239.695 327.767,242.529 317.5,244.5C 314.642,260.939 304.975,267.439 288.5,264C 285.142,260.805 282.809,256.972 281.5,252.5C 280.667,252.167 279.833,251.833 279,251.5C 248.222,254.601 217.389,257.101 186.5,259C 180.946,275.448 169.612,281.448 152.5,277C 148.35,272.538 145.35,267.372 143.5,261.5C 125.902,259.2 108.236,258.367 90.5,259C 88.5534,263.28 85.5534,266.613 81.5,269C 63.0376,274.946 52.371,268.446 49.5,249.5C 39.5293,248.447 29.5293,247.614 19.5,247C 14.6608,242.832 12.3275,237.499 12.5,231C 13,230.5 13.5,230 14,229.5C 14.3333,222.833 14.6667,216.167 15,209.5C 19.5419,207.155 24.3752,205.655 29.5,205C 38.4525,203.589 47.4525,202.756 56.5,202.5 Z"/></g>
<g><path style="opacity:1" fill="#1e1e1e" d="M 1483.5,134.5 C 1501.35,133.518 1510.18,141.851 1510,159.5C 1506,171.919 1497.5,177.419 1484.5,176C 1469.16,169.501 1465,158.667 1472,143.5C 1475.16,139.491 1478.99,136.491 1483.5,134.5 Z"/></g>
<g><path style="opacity:1" fill="#f6f6f6" d="M 1484.5,136.5 C 1501.71,136.21 1509.21,144.544 1507,161.5C 1502.07,171.88 1493.9,175.713 1482.5,173C 1470.75,166.173 1467.92,156.673 1474,144.5C 1476.94,140.963 1480.44,138.297 1484.5,136.5 Z"/></g>
<g><path style="opacity:1" fill="#131313" d="M 1486.5,144.5 C 1490.13,144.16 1493.46,144.994 1496.5,147C 1497.86,148.584 1498.53,150.418 1498.5,152.5C 1495.52,151.339 1492.52,150.005 1489.5,148.5C 1486.14,149.362 1484.47,151.529 1484.5,155C 1485.46,163.06 1488.79,164.393 1494.5,159C 1495.79,158.51 1497.13,158.343 1498.5,158.5C 1496.95,164.78 1492.95,167.28 1486.5,166C 1484.71,165.215 1483.21,164.049 1482,162.5C 1478.88,155.148 1480.38,149.148 1486.5,144.5 Z"/></g>
<g><path style="opacity:1" fill="#f9f9f9" d="M 138.5,193.5 C 136.5,192.833 134.5,192.167 132.5,191.5C 138.803,186.342 145.136,181.175 151.5,176C 174.156,174.206 196.823,174.039 219.5,175.5C 217.978,182.235 216.145,188.901 214,195.5C 212.833,196.667 211.667,197.833 210.5,199C 186.533,197.079 162.533,195.246 138.5,193.5 Z"/></g>
<g><path style="opacity:1" fill="#f6f6f6" d="M 261.5,182.5 C 261.733,185.542 262.733,188.208 264.5,190.5C 264.851,193.238 265.518,195.904 266.5,198.5C 251.862,199.999 237.196,201.333 222.5,202.5C 222.5,203.5 222.5,204.5 222.5,205.5C 217.067,206.187 216.401,205.021 220.5,202C 219.376,201.751 218.376,201.251 217.5,200.5C 220.13,193.645 222.297,186.645 224,179.5C 224.465,178.069 225.299,176.903 226.5,176C 236.833,175.333 247.167,175.333 257.5,176C 258.733,178.314 260.067,180.481 261.5,182.5 Z"/></g>
<g><path style="opacity:1" fill="#e7e7e7" d="M 264.5,190.5 C 264.267,187.458 263.267,184.792 261.5,182.5C 259.881,176.953 261.047,176.286 265,180.5C 267.371,186.738 269.871,192.905 272.5,199C 271.056,199.781 269.723,199.614 268.5,198.5C 267.339,195.642 266.006,192.975 264.5,190.5 Z"/></g>
<g><path style="opacity:1" fill="#080808" d="M 757.5,224.5 C 744.833,224.5 732.167,224.5 719.5,224.5C 719.19,227.713 719.523,230.713 720.5,233.5C 723.558,263.084 738.892,272.584 766.5,262C 770.587,258.584 773.92,254.584 776.5,250C 778.641,249.116 780.307,249.616 781.5,251.5C 774.217,266.062 762.384,273.062 746,272.5C 720.529,271.755 705.863,258.755 702,233.5C 699.714,213.329 706.547,197.162 722.5,185C 741.142,176.449 758.808,178.116 775.5,190C 784.123,198.419 785.623,207.919 780,218.5C 773.226,222.929 765.726,224.929 757.5,224.5 Z"/></g>
<g><path style="opacity:1" fill="#070707" d="M 832.5,179.5 C 846.781,177.84 859.781,181.007 871.5,189C 881.766,198.288 883.099,208.622 875.5,220C 871.716,221.947 867.716,223.28 863.5,224C 848.17,224.5 832.837,224.667 817.5,224.5C 816.899,235.898 819.399,246.564 825,256.5C 833.787,266.543 844.62,269.376 857.5,265C 864.906,262.426 870.239,257.593 873.5,250.5C 875.55,249.337 877.55,249.504 879.5,251C 871.842,266.671 859.175,273.837 841.5,272.5C 818.535,271.036 804.702,259.036 800,236.5C 796.73,216.976 802.23,200.476 816.5,187C 821.603,183.809 826.936,181.309 832.5,179.5 Z"/></g>
<g><path style="opacity:1" fill="#070707" d="M 1105.5,179.5 C 1118.5,178.332 1130.5,181.165 1141.5,188C 1148.36,193.113 1150.19,199.613 1147,207.5C 1142.33,211.5 1137.67,211.5 1133,207.5C 1131.14,202.657 1129.8,197.657 1129,192.5C 1124.74,185.46 1118.58,182.96 1110.5,185C 1100.13,187.699 1093.3,194.199 1090,204.5C 1086.13,219.415 1086.8,234.082 1092,248.5C 1098.51,263.171 1109.67,269.005 1125.5,266C 1135.06,263.275 1142.06,257.441 1146.5,248.5C 1148.17,249.333 1149.83,250.167 1151.5,251C 1145.82,262.841 1136.49,269.841 1123.5,272C 1103.56,275.273 1087.72,268.773 1076,252.5C 1065.01,229.373 1067.85,208.206 1084.5,189C 1090.85,184.171 1097.85,181.005 1105.5,179.5 Z"/></g>
<g><path style="opacity:1" fill="#080808" d="M 1187.5,179.5 C 1198.89,178.449 1209.89,179.949 1220.5,184C 1227.26,188.343 1231.43,194.51 1233,202.5C 1233.33,222.167 1233.67,241.833 1234,261.5C 1237.67,268.167 1241.33,268.167 1245,261.5C 1245.88,258.211 1246.55,254.877 1247,251.5C 1248.7,250.594 1250.53,250.261 1252.5,250.5C 1252.53,268.632 1243.86,275.465 1226.5,271C 1221.13,266.769 1217.97,261.269 1217,254.5C 1208.06,269.377 1194.9,275.211 1177.5,272C 1162.71,266.602 1157.21,256.102 1161,240.5C 1164.79,231.847 1171.29,226.347 1180.5,224C 1192.59,220.733 1204.93,219.233 1217.5,219.5C 1217.9,211.747 1217.4,204.08 1216,196.5C 1209.91,186.209 1201.08,182.709 1189.5,186C 1184.46,189.905 1181.29,195.072 1180,201.5C 1175.96,206.313 1171.63,206.646 1167,202.5C 1164.91,198.333 1165.25,194.333 1168,190.5C 1173.33,184.591 1179.83,180.925 1187.5,179.5 Z"/></g>
<g><path style="opacity:1" fill="#040404" d="M 1274.5,295.5 C 1275.5,259.337 1275.83,223.004 1275.5,186.5C 1270.17,186.5 1264.83,186.5 1259.5,186.5C 1259.5,184.833 1259.5,183.167 1259.5,181.5C 1269.5,181.5 1279.5,181.5 1289.5,181.5C 1289.46,188.868 1289.96,196.201 1291,203.5C 1299.18,183.991 1313.68,176.491 1334.5,181C 1344.42,183.912 1351.58,190.079 1356,199.5C 1360.78,212.498 1361.78,225.831 1359,239.5C 1347.91,269.752 1327.41,278.918 1297.5,267C 1295.36,265.692 1293.36,264.192 1291.5,262.5C 1290.5,276.818 1290.17,291.151 1290.5,305.5C 1296.51,305.334 1302.51,305.501 1308.5,306C 1310.04,307.11 1310.7,308.61 1310.5,310.5C 1293.5,310.5 1276.5,310.5 1259.5,310.5C 1259.5,308.833 1259.5,307.167 1259.5,305.5C 1263.25,305.608 1266.91,305.108 1270.5,304C 1273.32,301.859 1274.65,299.025 1274.5,295.5 Z"/></g>
<g><path style="opacity:1" fill="#060606" d="M 1411.5,179.5 C 1428.6,177.388 1443.1,182.388 1455,194.5C 1463.85,209.96 1459.68,219.794 1442.5,224C 1426.84,224.5 1411.17,224.667 1395.5,224.5C 1395.35,236.305 1398.19,247.305 1404,257.5C 1412.03,266.097 1421.86,268.93 1433.5,266C 1441.96,263.206 1448.29,257.873 1452.5,250C 1454.46,249.376 1456.13,249.876 1457.5,251.5C 1450.35,265.912 1438.69,272.912 1422.5,272.5C 1396.63,272.133 1381.8,259.133 1378,233.5C 1375.83,216.342 1380.66,201.508 1392.5,189C 1398.38,184.727 1404.71,181.561 1411.5,179.5 Z"/></g>
<g><path style="opacity:1" fill="#474747" d="M 261.5,182.5 C 263.267,184.792 264.267,187.458 264.5,190.5C 262.733,188.208 261.733,185.542 261.5,182.5 Z"/></g>
<g><path style="opacity:1" fill="#f9f9f9" d="M 740.5,184.5 C 760.859,184.018 769.026,193.685 765,213.5C 762.125,216.463 758.625,218.296 754.5,219C 742.838,219.5 731.171,219.667 719.5,219.5C 718.661,202.805 725.661,191.138 740.5,184.5 Z"/></g>
<g><path style="opacity:1" fill="#fafafa" d="M 837.5,184.5 C 852.829,182.849 861.829,189.515 864.5,204.5C 864.19,212.975 859.857,217.808 851.5,219C 840.172,219.5 828.838,219.667 817.5,219.5C 816.201,203.08 822.868,191.413 837.5,184.5 Z"/></g>
<g><path style="opacity:1" fill="#f9f9f9" d="M 1416.5,184.5 C 1437.57,184.354 1445.41,194.354 1440,214.5C 1437.23,216.761 1434.06,218.261 1430.5,219C 1418.84,219.5 1407.17,219.667 1395.5,219.5C 1394.65,202.824 1401.65,191.157 1416.5,184.5 Z"/></g>
<g><path style="opacity:1" fill="#717171" d="M 1259.5,186.5 C 1264.83,186.5 1270.17,186.5 1275.5,186.5C 1275.83,223.004 1275.5,259.337 1274.5,295.5C 1274.5,259.5 1274.5,223.5 1274.5,187.5C 1269.31,187.821 1264.31,187.487 1259.5,186.5 Z"/></g>
<g><path style="opacity:1" fill="#fcfcfc" d="M 1313.5,187.5 C 1330.23,187.391 1339.73,195.724 1342,212.5C 1342.82,223.539 1342.49,234.539 1341,245.5C 1335.94,263.275 1324.44,270.108 1306.5,266C 1298.9,261.673 1294.07,255.173 1292,246.5C 1290,235.167 1290,223.833 1292,212.5C 1294.78,200.228 1301.95,191.894 1313.5,187.5 Z"/></g>
<g><path style="opacity:1" fill="#717171" d="M 132.5,191.5 C 134.5,192.167 136.5,192.833 138.5,193.5C 136.076,193.808 133.743,193.474 131.5,192.5C 131.624,191.893 131.957,191.56 132.5,191.5 Z"/></g>
<g><path style="opacity:1" fill="#575757" d="M 56.5,202.5 C 61.6405,201.512 66.9738,201.179 72.5,201.5C 71.3285,202.345 69.9952,203.011 68.5,203.5C 66.6531,202.427 64.6531,202.427 62.5,203.5C 60.7354,202.539 58.7354,202.205 56.5,202.5 Z"/></g>
<g><path style="opacity:1" fill="#909090" d="M 176.5,203.5 C 182.653,202.347 188.986,202.18 195.5,203C 191.152,203.465 186.819,203.965 182.5,204.5C 180.735,203.539 178.735,203.205 176.5,203.5 Z"/></g>
<g><path style="opacity:1" fill="#cdcdcd" d="M 68.5,203.5 C 61.3964,205.262 54.3964,207.096 47.5,209C 51.6276,204.997 56.6276,203.164 62.5,203.5C 64.6531,202.427 66.6531,202.427 68.5,203.5 Z"/></g>
<g><path style="opacity:1" fill="#f0f0f0" d="M 176.5,203.5 C 178.735,203.205 180.735,203.539 182.5,204.5C 155.193,207.645 127.859,210.645 100.5,213.5C 99.1667,213.167 97.8333,212.833 96.5,212.5C 95.5091,210.677 94.1757,209.177 92.5,208C 120.484,206.167 148.484,204.667 176.5,203.5 Z"/></g>
<g><path style="opacity:1" fill="#d5d5d5" d="M 265.5,205.5 C 268.247,205.187 270.914,205.52 273.5,206.5C 270.936,206.371 268.269,206.704 265.5,207.5C 264.537,207.03 264.537,206.363 265.5,205.5 Z"/></g>
<g><path style="opacity:1" fill="#939393" d="M 272.5,210.5 C 274.337,210.639 274.67,211.306 273.5,212.5C 272.702,212.043 272.369,211.376 272.5,210.5 Z"/></g>
<g><path style="opacity:1" fill="#9b9b9b" d="M 75.5,221.5 C 75.1583,222.338 74.4916,222.672 73.5,222.5C 65.1251,222.684 56.7918,222.184 48.5,221C 57.5054,220.625 66.5054,220.792 75.5,221.5 Z"/></g>
<g><path style="opacity:1" fill="#6d6d6d" d="M 75.5,221.5 C 83.827,222.019 92.1603,222.519 100.5,223C 91.3238,223.824 82.3238,223.657 73.5,222.5C 74.4916,222.672 75.1583,222.338 75.5,221.5 Z"/></g>
<g><path style="opacity:1" fill="#949494" d="M 757.5,224.5 C 745.345,225.495 733.011,225.829 720.5,225.5C 720.5,228.167 720.5,230.833 720.5,233.5C 719.523,230.713 719.19,227.713 719.5,224.5C 732.167,224.5 744.833,224.5 757.5,224.5 Z"/></g>
<g><path style="opacity:1" fill="#fcfcfc" d="M 1198.5,225.5 C 1204.83,225.5 1211.17,225.5 1217.5,225.5C 1220.64,240.854 1215.97,253.021 1203.5,262C 1183.82,267.666 1174.99,260.166 1177,239.5C 1178.4,236.098 1180.57,233.264 1183.5,231C 1188.3,228.238 1193.3,226.404 1198.5,225.5 Z"/></g>
<g><path style="opacity:1" fill="#7b7b7b" d="M 49.5,226.5 C 47.2646,226.205 45.2646,226.539 43.5,227.5C 39.5101,227.001 35.5101,226.501 31.5,226C 37.6812,225.181 43.6812,225.347 49.5,226.5 Z"/></g>
<g><path style="opacity:1" fill="#636363" d="M 71.5,227.5 C 67.9581,227.813 64.6248,227.479 61.5,226.5C 64.1873,226.664 66.854,226.497 69.5,226C 66.5,225.667 63.5,225.333 60.5,225C 68.8603,224.446 77.1936,224.779 85.5,226C 80.6486,226.174 75.9819,226.674 71.5,227.5 Z"/></g>
<g><path style="opacity:1" fill="#f5f5f5" d="M 302.5,225.5 C 310.261,226.47 313.928,230.97 313.5,239C 313.344,243.457 312.178,247.624 310,251.5C 305.203,255.802 301.203,255.136 298,249.5C 293.651,240.224 295.151,232.224 302.5,225.5 Z"/></g>
<g><path style="opacity:1" fill="#cbcbcb" d="M 43.5,227.5 C 45.2646,226.539 47.2646,226.205 49.5,226.5C 53.5,226.5 57.5,226.5 61.5,226.5C 64.6248,227.479 67.9581,227.813 71.5,227.5C 83.5008,227.909 95.5008,228.409 107.5,229C 86.1236,229.884 64.7903,229.384 43.5,227.5 Z"/></g>
<g><path style="opacity:1" fill="#ededed" d="M 117.5,234.5 C 124.178,234.789 130.844,235.289 137.5,236C 134.029,237.036 130.529,237.869 127,238.5C 125.884,243.376 124.717,248.21 123.5,253C 122.101,253.595 120.768,253.428 119.5,252.5C 118.123,250.711 117.123,248.711 116.5,246.5C 111.208,245.505 105.875,245.172 100.5,245.5C 100.5,244.167 100.5,242.833 100.5,241.5C 105.5,241.5 110.5,241.5 115.5,241.5C 115.166,238.812 115.832,236.479 117.5,234.5 Z"/></g>
<g><path style="opacity:1" fill="#fafafa" d="M 167.5,236.5 C 174.742,235.372 179.242,238.372 181,245.5C 182.331,252.249 181.331,258.582 178,264.5C 172.933,270.088 168.267,269.755 164,263.5C 161.586,257.388 160.919,251.054 162,244.5C 163.273,241.403 165.107,238.736 167.5,236.5 Z"/></g>
<g><path style="opacity:1" fill="#f3f3f3" d="M 30.5,237.5 C 34.8839,237.174 39.2172,237.508 43.5,238.5C 43.7093,239.086 44.0426,239.586 44.5,240C 39.8452,240.499 35.1785,240.666 30.5,240.5C 30.5,239.5 30.5,238.5 30.5,237.5 Z"/></g>
<g><path style="opacity:1" fill="#ededed" d="M 137.5,239.5 C 141.167,239.5 144.833,239.5 148.5,239.5C 148.5,241.5 148.5,243.5 148.5,245.5C 143.5,245.5 138.5,245.5 133.5,245.5C 133.5,243.833 133.5,242.167 133.5,240.5C 135.099,240.768 136.432,240.434 137.5,239.5 Z"/></g>
<g><path style="opacity:1" fill="#f7f7f7" d="M 57.5,242.5 C 62.7968,243.275 68.1301,243.608 73.5,243.5C 74.2932,247.213 74.2932,250.88 73.5,254.5C 68.5656,253.425 63.5656,252.758 58.5,252.5C 57.9492,249.193 57.6159,245.86 57.5,242.5 Z"/></g>
<g><path style="opacity:1" fill="#b9b9b9" d="M 942.5,268.5 C 943.404,269.209 943.737,270.209 943.5,271.5C 927.325,271.83 911.325,271.496 895.5,270.5C 911.536,271.151 927.202,270.484 942.5,268.5 Z"/></g>
</svg>
